<svg xmlns="http://www.w3.org/2000/svg" width="64" height="64"><path fill="none" d="M-4.409-4.409H68.41V68.41H-4.41Z"/><radialGradient id="a" cx="14.505" cy="60.851" r="61.986" fx="14.505" fy="60.851" gradientUnits="userSpaceOnUse"><stop offset="0" stop-color="#09f"/><stop offset=".61" stop-color="#a033ff"/><stop offset=".935" stop-color="#ff5280"/><stop offset="1" stop-color="#ff7061"/></radialGradient><path fill="url(#a)" fill-rule="evenodd" d="M32 4.267c-16.024 0-28.444 11.737-28.444 27.59 0 8.293 3.398 15.46 8.933 20.409.464.415.745.998.764 1.621l.155 5.06A2.275 2.275 0 0 0 16.6 60.96l5.646-2.492a2.27 2.27 0 0 1 1.52-.112A31.02 31.02 0 0 0 32 59.45c16.024 0 28.444-11.737 28.444-27.591 0-15.854-12.42-27.591-28.444-27.591Z"/><path fill="#fff" fill-rule="evenodd" d="m14.92 39.927 8.355-13.257a4.267 4.267 0 0 1 6.17-1.138l6.645 4.984c.61.458 1.449.455 2.056-.006l8.974-6.81c1.198-.91 2.762.524 1.96 1.797l-8.356 13.256a4.267 4.267 0 0 1-6.17 1.138l-6.645-4.984a1.707 1.707 0 0 0-2.056.006l-8.975 6.811c-1.198.91-2.762-.524-1.96-1.796Z"/></svg>